<mxfile host="65bd71144e">
    <diagram id="XjMpJv1BIOW9Tq0SZBh7" name="PÃ¡gina-1">
        <mxGraphModel dx="875" dy="498" grid="1" gridSize="10" guides="1" tooltips="1" connect="1" arrows="1" fold="1" page="1" pageScale="1" pageWidth="827" pageHeight="1169" math="0" shadow="0">
            <root>
                <mxCell id="0"/>
                <mxCell id="1" parent="0"/>
                <mxCell id="2" value="React&lt;br&gt;UI Framework" style="rounded=1;whiteSpace=wrap;html=1;fillColor=#1ba1e2;strokeColor=#006EAF;fontColor=#ffffff;" vertex="1" parent="1">
                    <mxGeometry x="170" y="100" width="120" height="60" as="geometry"/>
                </mxCell>
                <mxCell id="3" value="Material UI&lt;br&gt;UI Framework" style="rounded=1;whiteSpace=wrap;html=1;fillColor=#e3c800;strokeColor=#B09500;fontColor=#000000;" vertex="1" parent="1">
                    <mxGeometry x="300" y="100" width="120" height="60" as="geometry"/>
                </mxCell>
                <mxCell id="4" value="XState&lt;br&gt;State Management" style="rounded=1;whiteSpace=wrap;html=1;fillColor=#76608a;strokeColor=#432D57;fontColor=#ffffff;" vertex="1" parent="1">
                    <mxGeometry x="170" y="170" width="250" height="60" as="geometry"/>
                </mxCell>
                <mxCell id="5" value="Express&lt;br&gt;API Server" style="rounded=1;whiteSpace=wrap;html=1;fillColor=#008a00;strokeColor=#005700;fontColor=#ffffff;" vertex="1" parent="1">
                    <mxGeometry x="170" y="260" width="250" height="60" as="geometry"/>
                </mxCell>
                <mxCell id="6" value="IowDB&lt;br&gt;Database" style="rounded=1;whiteSpace=wrap;html=1;fillColor=#CC99FF;" vertex="1" parent="1">
                    <mxGeometry x="170" y="330" width="250" height="60" as="geometry"/>
                </mxCell>
                <mxCell id="7" value="" style="endArrow=none;dashed=1;html=1;" edge="1" parent="1">
                    <mxGeometry width="50" height="50" relative="1" as="geometry">
                        <mxPoint x="100" y="250" as="sourcePoint"/>
                        <mxPoint x="520" y="250" as="targetPoint"/>
                    </mxGeometry>
                </mxCell>
                <mxCell id="8" value="&lt;b&gt;&lt;font style=&quot;font-size: 24px&quot;&gt;Backend&lt;/font&gt;&lt;/b&gt;" style="text;html=1;strokeColor=none;fillColor=none;align=center;verticalAlign=middle;whiteSpace=wrap;rounded=0;rotation=-90;direction=north;" vertex="1" parent="1">
                    <mxGeometry x="90" y="310" width="20" height="40" as="geometry"/>
                </mxCell>
                <mxCell id="9" value="&lt;b&gt;&lt;font style=&quot;font-size: 24px&quot;&gt;Frontend&lt;/font&gt;&lt;/b&gt;" style="text;html=1;strokeColor=none;fillColor=none;align=center;verticalAlign=middle;whiteSpace=wrap;rounded=0;rotation=-90;direction=north;" vertex="1" parent="1">
                    <mxGeometry x="90" y="140" width="20" height="40" as="geometry"/>
                </mxCell>
                <mxCell id="11" value="" style="shape=flexArrow;endArrow=classic;startArrow=classic;html=1;width=27;" edge="1" parent="1">
                    <mxGeometry width="100" height="100" relative="1" as="geometry">
                        <mxPoint x="450" y="390" as="sourcePoint"/>
                        <mxPoint x="450" y="110" as="targetPoint"/>
                    </mxGeometry>
                </mxCell>
                <mxCell id="15" value="&lt;b&gt;&lt;font style=&quot;font-size: 24px&quot;&gt;Typescript&lt;/font&gt;&lt;/b&gt;" style="text;html=1;strokeColor=none;fillColor=none;align=center;verticalAlign=middle;whiteSpace=wrap;rounded=0;rotation=-90;direction=north;" vertex="1" parent="1">
                    <mxGeometry x="438" y="239" width="20" height="40" as="geometry"/>
                </mxCell>
                <mxCell id="18" value="RWA" style="text;html=1;strokeColor=none;fillColor=none;align=center;verticalAlign=middle;whiteSpace=wrap;rounded=0;fontSize=31;fontStyle=1;fontColor=#FF3333;" vertex="1" parent="1">
                    <mxGeometry x="290" y="30" width="40" height="20" as="geometry"/>
                </mxCell>
            </root>
        </mxGraphModel>
    </diagram>
</mxfile>